<svg width="128" height="128" viewBox="0 0 128 128" fill="none" xmlns="http://www.w3.org/2000/svg">
  <defs>
    <linearGradient id="bg" x1="16" y1="12" x2="112" y2="116" gradientUnits="userSpaceOnUse">
      <stop stop-color="#F8D77C"/>
      <stop offset="1" stop-color="#E88B56"/>
    </linearGradient>
    <linearGradient id="leaf" x1="63" y1="46" x2="84" y2="68" gradientUnits="userSpaceOnUse">
      <stop stop-color="#74C36A"/>
      <stop offset="1" stop-color="#2E8B57"/>
    </linearGradient>
  </defs>
  <rect x="8" y="8" width="112" height="112" rx="28" fill="url(#bg)"/>
  <path
    d="M22 64C29.2 47.2 45.6 36 64 36C82.4 36 98.8 47.2 106 64C98.8 80.8 82.4 92 64 92C45.6 92 29.2 80.8 22 64Z"
    fill="#FFF8EE"
  />
  <path
    d="M28 64C34 50.8 47.8 42 64 42C80.2 42 94 50.8 100 64C94 77.2 80.2 86 64 86C47.8 86 34 77.2 28 64Z"
    fill="#1C2C3B"
  />
  <circle cx="64" cy="64" r="15" fill="#FFF8EE"/>
  <circle cx="64" cy="64" r="8" fill="#1C2C3B"/>
  <path
    d="M72 42C82 41.6 90.4 49.1 90.8 59.1C80.9 59.5 72.4 52 72 42Z"
    fill="url(#leaf)"
  />
  <path
    d="M74.5 45.5C79.4 48.9 83 53.3 85.4 58.7"
    stroke="#EAF7DA"
    stroke-width="3"
    stroke-linecap="round"
  />
  <circle cx="48" cy="55" r="4" fill="#FFF8EE" fill-opacity="0.9"/>
</svg>
